<?xml version="1.0" standalone="no"?>
<!DOCTYPE svg PUBLIC "-//W3C//DTD SVG 20010904//EN"
 "http://www.w3.org/TR/2001/REC-SVG-20010904/DTD/svg10.dtd">
<svg version="1.0" xmlns="http://www.w3.org/2000/svg"
 width="880.000000pt" height="363.000000pt" viewBox="0 0 880.000000 363.000000"
 preserveAspectRatio="xMidYMid meet">

<g transform="translate(0.000000,363.000000) scale(0.100000,-0.100000)"
fill="#000000" stroke="none">
<path d="M4768 3190 c-50 -26 -91 -69 -333 -345 -290 -332 -286 -326 -240
-365 9 -7 25 -26 36 -41 l20 -28 -52 -26 c-51 -26 -51 -26 -73 -7 -116 106
-414 366 -423 369 -16 6 -123 -54 -145 -81 -17 -21 -18 -20 -18 27 0 45 -1 48
-22 41 -340 -104 -718 -231 -772 -260 l-69 -37 6 -126 c4 -69 7 -151 7 -181 0
-80 6 -84 73 -67 l55 15 6 -30 c11 -53 11 -53 -77 -54 -106 0 -172 -16 -277
-67 -47 -23 -88 -43 -91 -45 -3 -1 -1 25 4 58 33 204 -82 430 -283 560 -104
66 -180 94 -315 115 -136 22 -343 15 -484 -14 -210 -44 -488 -159 -682 -282
-75 -46 -209 -163 -209 -180 0 -7 338 -579 349 -592 4 -4 35 5 69 20 37 16 66
23 71 17 4 -5 37 -76 73 -159 297 -676 491 -1111 498 -1118 4 -5 129 30 276
77 224 72 280 94 337 132 50 33 67 49 63 62 -21 70 -97 375 -94 377 2 2 24
-22 50 -54 152 -190 424 -239 663 -119 33 16 83 47 112 69 l51 38 7 -67 c12
-129 12 -132 43 -126 15 2 131 20 259 38 218 32 236 36 297 71 l66 37 0 159
c0 87 2 159 4 159 3 0 215 -105 471 -232 l467 -233 66 37 67 37 3 220 2 220
43 11 c79 21 112 33 179 66 37 19 69 34 71 34 2 0 -5 -52 -15 -116 -10 -65
-17 -118 -15 -120 2 -2 132 -24 289 -50 l286 -45 51 25 c28 14 54 26 59 26 5
0 24 -27 41 -60 18 -33 34 -60 37 -60 3 0 26 12 50 26 25 15 47 25 49 23 2 -2
8 -40 14 -83 6 -44 13 -81 14 -82 5 -5 622 -114 646 -114 12 0 49 15 82 33
l60 32 -5 40 c-3 22 -8 59 -12 82 l-6 41 48 7 c27 4 70 16 97 25 56 21 53 28
36 -113 -6 -49 -8 -91 -5 -94 3 -4 102 -20 218 -37 l213 -32 5 -89 5 -90 225
-72 225 -71 67 35 c36 19 68 40 71 46 24 64 587 1765 587 1774 0 6 -129 43
-307 86 l-308 75 -43 -25 c-24 -14 -45 -23 -49 -20 -3 3 -8 20 -12 38 l-7 32
-329 74 c-430 95 -397 91 -470 50 l-60 -34 -3 -185 -2 -185 -68 -6 c-83 -7
-180 -38 -246 -78 -27 -17 -52 -26 -56 -22 -3 4 -28 145 -54 313 -26 168 -50
320 -53 338 l-5 32 -238 0 -239 0 -73 -40 -73 -40 -189 0 -188 0 -69 -36 c-70
-37 -73 -41 -83 -109 -4 -22 -9 -52 -12 -67 l-5 -27 -46 35 c-91 69 -187 109
-311 128 l-76 12 204 108 c113 60 208 112 213 115 9 9 -283 450 -298 450 -5 0
-36 -13 -67 -29z m122 -266 c39 -53 73 -101 76 -107 2 -7 -87 -58 -221 -124
l-225 -113 -16 25 c-16 24 -14 26 146 220 89 107 164 195 166 195 1 0 35 -43
74 -96z m1320 -381 c0 -4 9 -66 20 -137 11 -72 27 -176 36 -231 8 -55 22 -141
30 -191 l15 -92 -50 -74 c-74 -109 -103 -191 -109 -314 -3 -77 0 -114 13 -159
37 -129 108 -224 220 -297 53 -35 61 -43 66 -79 5 -38 5 -40 -20 -35 -14 3
-75 12 -136 21 -60 9 -130 20 -155 24 -51 7 -44 -9 -75 196 -9 61 -20 133 -25
160 -5 28 -16 103 -26 168 -20 137 -11 144 -95 -78 -28 -71 -53 -133 -57 -137
-4 -3 -52 90 -106 208 -55 118 -101 213 -102 211 -3 -2 -32 -178 -60 -362 -8
-55 -17 -110 -19 -121 l-5 -21 -102 18 c-218 38 -238 42 -238 48 4 60 50 284
62 294 8 6 41 41 74 76 l59 63 -54 48 -53 47 42 244 c22 134 48 288 57 342
l16 97 171 0 172 0 13 -67 c7 -38 19 -99 26 -138 8 -38 22 -113 31 -165 16
-84 19 -91 25 -60 3 19 20 116 38 215 17 99 36 204 42 233 l10 52 125 0 c68 0
124 -3 124 -7z m-2815 -45 c5 -40 25 -348 25 -392 0 -23 21 4 180 229 62 88
121 170 131 183 l18 24 156 -147 c85 -81 155 -152 155 -157 0 -5 -73 -87 -163
-181 -231 -243 -271 -287 -266 -291 2 -3 94 -40 204 -84 l200 -79 37 -54 c54
-79 132 -145 223 -190 79 -38 177 -69 222 -69 23 0 23 0 23 -150 0 -82 -2
-150 -5 -150 -3 0 -239 117 -525 260 -286 143 -524 260 -530 260 -6 0 -11
-103 -12 -277 l-3 -278 -100 -13 c-55 -7 -116 -13 -135 -15 l-35 -2 -8 113
c-8 109 -8 116 16 166 100 210 79 462 -48 605 -38 42 -39 49 -60 311 -9 107
-17 195 -19 197 -1 1 -27 -4 -57 -11 -29 -8 -57 -12 -61 -10 -5 3 -8 29 -8 59
l0 54 68 20 c37 11 132 40 212 65 80 24 148 44 152 45 4 0 9 -18 13 -41z
m-1572 -34 c160 -36 312 -146 378 -274 29 -57 33 -77 37 -161 6 -140 -31 -250
-133 -394 -50 -71 -179 -195 -252 -245 -29 -19 -53 -39 -53 -45 0 -5 40 -163
89 -350 49 -187 89 -340 88 -341 -14 -7 -292 -93 -294 -90 -2 2 -57 122 -122
267 -65 145 -200 447 -301 671 l-182 407 -74 -37 c-40 -20 -75 -34 -77 -32 -2
3 -52 86 -110 185 -98 165 -105 181 -89 193 9 8 74 42 144 78 191 96 395 161
577 184 91 12 287 3 374 -16z m2988 -74 c72 -13 183 -69 243 -123 48 -42 49
-44 34 -65 -8 -13 -106 -119 -217 -237 -110 -117 -201 -217 -201 -221 0 -14
117 8 170 32 30 14 76 46 102 71 l47 46 98 -85 c151 -132 144 -117 78 -174
-186 -162 -465 -245 -675 -200 -158 33 -272 119 -335 251 -30 62 -37 89 -42
163 -10 157 34 278 141 380 88 84 191 138 308 161 61 12 186 13 249 1z m2503
-55 c121 -25 223 -50 228 -57 4 -7 8 -22 8 -33 2 -44 148 -699 153 -685 6 14
39 152 127 518 18 72 35 132 38 132 20 -1 343 -78 348 -83 3 -3 -57 -196 -135
-429 -77 -233 -190 -576 -252 -763 -61 -187 -113 -341 -114 -343 -1 -1 -58 15
-126 36 l-124 37 -6 165 c-3 91 -7 253 -8 361 0 108 -4 238 -8 290 l-6 94 -48
-270 c-26 -148 -53 -299 -59 -335 -6 -36 -15 -71 -19 -78 -6 -11 -34 -9 -137
8 -71 12 -130 23 -132 25 -2 2 0 47 4 100 6 91 9 99 36 124 37 32 119 143 146
196 79 157 83 364 10 508 -11 22 -38 59 -60 83 l-41 44 7 83 c4 45 9 100 12
122 l6 41 -51 13 -51 13 0 64 c0 54 3 64 18 64 9 0 116 -20 236 -45z m-361
-374 c71 -28 153 -105 186 -175 117 -251 -64 -585 -363 -671 -80 -23 -222 -17
-289 13 -115 51 -204 180 -215 308 -18 231 160 472 399 539 76 21 207 14 282
-14z m-2976 -187 c-1 -8 -25 -3 -69 15 l-68 27 63 62 62 62 7 -77 c5 -43 7
-83 5 -89z m-1148 106 c289 -47 410 -364 248 -650 -17 -30 -63 -86 -102 -125
-196 -193 -472 -219 -643 -60 -125 116 -161 285 -98 460 32 89 76 153 156 229
101 95 220 147 355 155 11 0 49 -4 84 -9z"/>
<path d="M1647 2054 c-26 -8 -51 -22 -54 -30 -3 -8 11 -69 31 -137 68 -226
109 -352 116 -361 11 -11 93 46 153 106 66 66 89 122 89 214 0 93 -26 145 -95
188 -58 36 -163 45 -240 20z m201 -128 c40 -39 38 -115 -3 -181 -16 -26 -34
-49 -40 -49 -8 -1 -65 164 -81 237 l-6 30 52 -5 c39 -4 59 -12 78 -32z"/>
<path d="M4550 2191 c-46 -15 -85 -39 -116 -73 -52 -55 -68 -95 -68 -173 0
-78 21 -130 72 -178 l30 -29 45 49 c24 26 82 91 127 143 45 52 101 114 123
137 40 42 41 43 21 64 -46 51 -168 82 -234 60z m103 -89 c14 -6 1 -26 -78
-117 -53 -61 -99 -109 -103 -108 -16 4 -24 76 -13 114 23 77 127 137 194 111z"/>
<path d="M6674 1886 c-133 -42 -195 -178 -135 -299 76 -155 313 -169 409 -25
24 36 27 51 27 119 0 43 -5 83 -10 88 -8 8 -11 1 -13 -20 -5 -64 -63 -109
-142 -109 -148 0 -196 181 -63 236 18 8 33 16 33 19 0 9 -65 4 -106 -9z"/>
<path d="M2641 1766 c-49 -18 -111 -74 -132 -120 -27 -59 -24 -113 9 -177 33
-66 86 -105 164 -121 49 -10 65 -9 110 5 68 21 120 64 147 122 24 51 27 127 7
164 l-13 23 -6 -29 c-12 -61 -78 -113 -144 -113 -14 0 -46 9 -69 20 -100 49
-94 179 11 226 l30 13 -40 0 c-22 0 -55 -6 -74 -13z"/>
<path d="M7907 572 c6 -4 13 -23 16 -42 l4 -35 1 37 c2 25 7 38 20 41 9 3 1 5
-18 6 -19 0 -30 -3 -23 -7z"/>
<path d="M7971 538 c1 -40 2 -41 9 -13 l7 30 8 -28 c5 -21 10 -26 19 -17 8 8
8 13 0 18 -6 4 -14 17 -18 30 -12 37 -26 25 -25 -20z"/>
<path d="M8026 564 c-8 -22 -8 -26 3 -19 5 3 12 -5 14 -17 3 -15 5 -9 6 15 1
38 -12 50 -23 21z"/>
</g>
</svg>
